<svg width="35" height="30" viewBox="0 0 35 30" fill="none" xmlns="http://www.w3.org/2000/svg">
<path d="M33.5242 8.66211H32.8359V17.3889H33.5242V8.66211Z" fill="#EC5757"/>
<path d="M34.567 16.4043C34.567 15.6574 33.9539 15.0225 33.178 15.0225C32.3897 15.0225 31.7891 15.6574 31.7891 16.4043C31.7891 17.1886 32.4022 17.811 33.178 17.811C33.9664 17.8235 34.567 17.1886 34.567 16.4043Z" fill="#EC5757"/>
<path d="M8.51124 21.4473L14.4801 24.5595C14.4801 24.5595 11.5645 29.3897 6.05863 29.4769C6.04611 29.4769 9.52482 25.8169 8.51124 21.4473Z" fill="#F0B01B"/>
<path d="M16.9733 26.0038C23.4005 26.0038 28.6107 20.8203 28.6107 14.4262C28.6107 8.03209 23.4005 2.84863 16.9733 2.84863C10.5462 2.84863 5.33594 8.03209 5.33594 14.4262C5.33594 20.8203 10.5462 26.0038 16.9733 26.0038Z" fill="#F0B01B"/>
<path d="M33.0634 7.55343C33.9018 7.96424 33.9018 8.63649 33.0634 9.04731L18.3602 16.3051C17.5218 16.7159 16.1704 16.7159 15.332 16.3051L0.628795 9.04731C-0.209598 8.63649 -0.209598 7.96424 0.628795 7.55343L15.332 0.308113C16.1704 -0.102704 17.5218 -0.102704 18.3602 0.308113L33.0634 7.55343Z" fill="#D55027"/>
</svg>
